<svg xmlns="http://www.w3.org/2000/svg" xmlns:xlink="http://www.w3.org/1999/xlink"><defs><symbol fill="none" viewBox="0 0 20 20" id="arrow"><path stroke="#fff" stroke-linecap="round" stroke-linejoin="round" stroke-width="2" d="M4.167 10h11.666M10 4.167 15.833 10 10 15.833" /></symbol><symbol fill="none" viewBox="0 0 470 419" id="heroLeftCornerDecor"><g filter="url(#heroLeftCornerDecor_a)"><path fill="#162C4E" fill-rule="evenodd" d="M43.433 410.107c104.237-29.45 18.67-106.605 55.043-154.693C142.66 197 491.186 123.286 468.434 26.699 399.956-127.104 194.156-34.04 142.454-89.585 92.331-143.434 4.424-227.864-63.816-255.388c-65.32-26.345-205.195-25.701-227.017 101.074-13.917 95.359 29.466 118.65-1.496 167.375-32.785 51.592-84.33 94.363-88.77 155.313-4.811 66.054 14.254 139.315 64.134 182.881 48.549 42.402 121.776 24.68 185.411 35.071 59.552 9.725 119.993 48.639 174.987 23.781Z" clip-rule="evenodd" /></g><defs><filter id="heroLeftCornerDecor_a" width="851.319" height="691.427" x="-381.819" y="-269.155" color-interpolation-filters="sRGB" filterUnits="userSpaceOnUse"><feFlood flood-opacity="0" result="BackgroundImageFix"></feFlood><feBlend in="SourceGraphic" in2="BackgroundImageFix" result="shape"></feBlend><feColorMatrix in="SourceAlpha" result="hardAlpha" values="0 0 0 0 0 0 0 0 0 0 0 0 0 0 0 0 0 0 127 0"></feColorMatrix><feOffset dy="4"></feOffset><feGaussianBlur stdDeviation="15"></feGaussianBlur><feComposite in2="hardAlpha" k2="-1" k3="1" operator="arithmetic"></feComposite><feColorMatrix values="0 0 0 0 0 0 0 0 0 0 0 0 0 0 0 0 0 0 1 0"></feColorMatrix><feBlend in2="shape" result="effect1_innerShadow_3_738"></feBlend></filter></defs></symbol><symbol fill="none" viewBox="0 0 271 327" id="heroRightCornerDecor"><g filter="url(#heroRightCornerDecor_a)"><path fill="#162C4E" fill-rule="evenodd" d="M692.596 68.335c38.467-101.258-74.539-78.526-91.501-136.394-20.605-70.294 127.907-394.107 36.728-433.398-164.414-36.671-212.3 184.058-287.755 192.474-73.15 8.159-193.398 28.436-256.193 66.832C33.77-205.398-49.09-92.689 39.78.389c68.334 68.007 112.911 47.05 133.61 100.952 21.918 57.075 25.563 123.957 71.896 163.847 50.213 43.229 120.45 71.581 185.192 57.488 63.014-13.717 92.421-83.083 138.703-127.992 43.313-42.027 110.611-67.372 123.416-126.35Z" clip-rule="evenodd" /></g><defs><filter id="heroRightCornerDecor_a" width="699.692" height="835.887" x=".838" y="-505.564" color-interpolation-filters="sRGB" filterUnits="userSpaceOnUse"><feFlood flood-opacity="0" result="BackgroundImageFix"></feFlood><feBlend in="SourceGraphic" in2="BackgroundImageFix" result="shape"></feBlend><feColorMatrix in="SourceAlpha" result="hardAlpha" values="0 0 0 0 0 0 0 0 0 0 0 0 0 0 0 0 0 0 127 0"></feColorMatrix><feOffset dy="4"></feOffset><feGaussianBlur stdDeviation="15"></feGaussianBlur><feComposite in2="hardAlpha" k2="-1" k3="1" operator="arithmetic"></feComposite><feColorMatrix values="0 0 0 0 0 0 0 0 0 0 0 0 0 0 0 0 0 0 1 0"></feColorMatrix><feBlend in2="shape" result="effect1_innerShadow_3_739"></feBlend></filter></defs></symbol><symbol fill="none" viewBox="0 0 191 61" id="logo"><path fill="#DF2325" d="M25.637 46.662c.885-5.263 4.916-8.602 11.026-8.602H52.54c5.925 0 7.184-3.89 7.184-3.89-.885 5.263-3.295 8.601-9.405 8.601H34.033c-6.74 0-8.396 3.89-8.396 3.89Z" /><path fill="#EE4523" d="M52.266 43.775c-1.348 2.026-2.91 2.204-5.872 2.204-2.963 0-6.442.065-11.257 0-5.184-.072-9.186 2.269-9.512 7.36 1.348-2.026 3.1-2.394 6.062-2.394 2.963 0 4.744-.066 9.56 0 5.177.077 9.226-2.21 11.02-7.17Z" /><path fill="#FE5F3E" d="M25.637 57.562c0-2.026 2.772-3.113 6.085-3.113s9.726.44 12.451-1.485c-.742 2.222-7.51 7.313-14.273 7.313-3.064 0-4.263-1.48-4.263-2.715Z" /><path fill="#172C4F" d="M13.609 25.788c5.26.886 8.597 4.919 8.597 11.031v15.884c0 5.929 3.89 7.188 3.89 7.188-5.262-.885-8.598-3.297-8.598-9.41V34.189c0-6.748-3.89-8.4-3.89-8.4Z" /><path fill="#264A74" d="M16.493 52.424c-2.025-1.349-2.203-2.91-2.203-5.875 0-2.964-.065-6.445 0-11.263.071-5.185-2.268-9.19-7.357-9.516 2.025 1.349 2.393 3.101 2.393 6.065 0 2.964.065 4.746 0 9.564-.071 5.186 2.209 9.23 7.167 11.025Z" /><path fill="#345A87" d="M2.72 25.79c2.024 0 3.11 2.774 3.11 6.089 0 3.308-.439 9.73 1.485 12.456C5.088 43.593 0 36.821 0 30.05c0-3.065 1.484-4.26 2.72-4.26Z" /><path fill="#DF2325" d="M34.48 13.753c-.884 5.263-4.916 8.602-11.026 8.602H7.572c-5.926 0-7.185 3.89-7.185 3.89.885-5.262 3.296-8.6 9.405-8.6H26.08c6.745 0 8.401-3.892 8.401-3.892Z" /><path fill="#EE4523" d="M7.85 16.64c1.348-2.025 2.91-2.204 5.873-2.204 2.962 0 6.442-.065 11.257 0 5.183.072 9.185-2.269 9.512-7.36-1.348 2.026-3.1 2.394-6.062 2.394-2.963 0-4.744.066-9.56 0-5.177-.077-9.227 2.21-11.02 7.17Z" /><path fill="#FE5F3E" d="M34.481 2.853c0 2.026-2.773 3.113-6.086 3.113s-9.725-.44-12.45 1.485c.741-2.222 7.51-7.313 14.273-7.313 3.064 0 4.263 1.48 4.263 2.715Z" /><path fill="#172C4F" d="M46.508 34.627c-5.26-.885-8.597-4.919-8.597-11.03V7.711c0-5.928-3.89-7.188-3.89-7.188 5.261.885 8.598 3.297 8.598 9.41v16.294c0 6.748 3.89 8.399 3.89 8.399Z" /><path fill="#264A74" d="M43.623 7.991c2.024 1.349 2.202 2.911 2.202 5.875s.066 6.445 0 11.263c-.07 5.185 2.268 9.19 7.357 9.516-2.025-1.349-2.393-3.1-2.393-6.065 0-2.964-.065-4.746 0-9.564.071-5.185-2.209-9.23-7.166-11.025Z" /><path fill="#345A87" d="M57.397 34.627c-2.025 0-3.111-2.774-3.111-6.089 0-3.308.439-9.73-1.485-12.456 2.22.742 7.31 7.514 7.31 14.28.005 3.071-1.48 4.265-2.714 4.265Z" /><path fill="#172C4F" d="M84.485 6.595V33.76h10.67v6.29H76.338V6.595h8.146ZM119.547 13.124h-12.339v6.766h10.908v6.29h-10.908v7.342h12.339v6.528H99.062V6.595h20.485v6.529ZM145.655 34.14h-12.481l-2.001 5.91h-8.526l12.101-33.455h9.434l12.101 33.455h-8.621l-2.007-5.91Zm-6.241-18.54-4.096 12.25h8.241l-4.145-12.25ZM190.001 23.323c0 9.914-6.857 16.727-17.527 16.727h-12.528V6.595h12.528c10.67 0 17.527 6.766 17.527 16.728Zm-18.056 9.67c6.146 0 9.768-3.528 9.768-9.676s-3.622-9.772-9.768-9.772h-3.859v19.443h3.859v.005ZM115.467 52.074h-3.414l-.588 1.669h-1.395l2.921-8.168h1.55l2.921 8.168h-1.407l-.588-1.67Zm-1.704-4.883-1.336 3.79h2.666l-1.33-3.79ZM128.935 49.242c0 2.513-1.716 4.051-4.329 4.051h-2.666v-8.156h2.666c2.613-.005 4.329 1.58 4.329 4.105Zm-4.329 2.958c1.924 0 2.957-1.105 2.957-2.958 0-1.865-1.033-3.017-2.957-3.017h-1.324V52.2h1.324ZM138.755 45.58h1.407l-3.063 8.157h-1.55l-3.076-8.156h1.431l2.417 6.784 2.434-6.784ZM144.538 45.58h1.336v8.157h-1.336V45.58ZM153.687 53.82c-1.633 0-2.886-.89-2.886-2.334h1.431c.06.67.529 1.211 1.455 1.211.938 0 1.466-.505 1.466-1.2 0-1.972-4.328-.694-4.328-3.7 0-1.432 1.14-2.323 2.802-2.323 1.562 0 2.666.82 2.779 2.222h-1.478c-.048-.553-.529-1.057-1.372-1.081-.772-.024-1.371.35-1.371 1.14 0 1.842 4.316.695 4.316 3.677 0 1.218-.997 2.388-2.814 2.388ZM165.047 53.82c-2.298 0-4.168-1.723-4.168-4.182 0-2.442 1.864-4.17 4.168-4.17 2.322 0 4.168 1.722 4.168 4.17 0 2.459-1.841 4.182-4.168 4.182Zm0-1.159c1.621 0 2.791-1.176 2.791-3.017 0-1.842-1.176-2.994-2.791-2.994-1.621 0-2.791 1.152-2.791 2.994 0 1.841 1.176 3.017 2.791 3.017ZM176.784 45.58c1.936 0 2.886 1.118 2.886 2.442 0 .963-.517 1.996-1.888 2.335l2.018 3.38h-1.597l-1.876-3.261h-1.021v3.26h-1.336v-8.155h2.814Zm0 1.094h-1.478v2.732h1.478c1.045 0 1.514-.576 1.514-1.384 0-.82-.469-1.348-1.514-1.348ZM187.187 53.82c-1.633 0-2.886-.89-2.886-2.334h1.431c.06.67.529 1.211 1.455 1.211.938 0 1.466-.505 1.466-1.2 0-1.972-4.328-.694-4.328-3.7 0-1.432 1.14-2.323 2.803-2.323 1.561 0 2.665.82 2.778 2.222h-1.478c-.048-.553-.529-1.057-1.372-1.081-.772-.024-1.371.35-1.371 1.14 0 1.842 4.316.695 4.316 3.677 0 1.218-.997 2.388-2.814 2.388Z" /></symbol></defs></svg>